solid OpenSCAD_Model
  facet normal -1 0 0
    outer loop
      vertex -15 5.55112e-15 -25
      vertex -15 10 2.22045e-15
      vertex -15 10 -25
    endloop
  endfacet
  facet normal -1 0 0
    outer loop
      vertex -15 10 2.22045e-15
      vertex -15 5.55112e-15 -25
      vertex -15 0 0
    endloop
  endfacet
  facet normal 0 1 0
    outer loop
      vertex -4.5 10 -5
      vertex -9.5 10 -9.5
      vertex -10.191 10 -8.54894
    endloop
  endfacet
  facet normal 0 1 -0
    outer loop
      vertex -4.5 10 -14
      vertex -9.5 10 -9.5
      vertex -4.5 10 -5
    endloop
  endfacet
  facet normal 0 1 0
    outer loop
      vertex -9.5 10 -9.5
      vertex -4.5 10 -14
      vertex -6 10 -14
    endloop
  endfacet
  facet normal 0 1 0
    outer loop
      vertex 15 10 2.22045e-15
      vertex 4.5 10 -5
      vertex -15 10 2.22045e-15
    endloop
  endfacet
  facet normal 0 1 0
    outer loop
      vertex 15 10 2.22045e-15
      vertex 10.809 10 -8.54894
      vertex 4.5 10 -5
    endloop
  endfacet
  facet normal 0 1 0
    outer loop
      vertex 15 10 2.22045e-15
      vertex 11.5 10 -9.5
      vertex 10.809 10 -8.54894
    endloop
  endfacet
  facet normal 0 1 0
    outer loop
      vertex 10.809 10 -10.4511
      vertex 10.809 10 -21.0489
      vertex 6 10 -14
    endloop
  endfacet
  facet normal 0 1 0
    outer loop
      vertex 11.5 10 -9.5
      vertex 10.809 10 -21.0489
      vertex 10.809 10 -10.4511
    endloop
  endfacet
  facet normal 0 1 -0
    outer loop
      vertex 15 10 -25
      vertex 11.5 10 -9.5
      vertex 15 10 2.22045e-15
    endloop
  endfacet
  facet normal -0 1 0
    outer loop
      vertex 11.5 10 -22
      vertex 11.5 10 -9.5
      vertex 15 10 -25
    endloop
  endfacet
  facet normal 0 1 0
    outer loop
      vertex -15 10 -25
      vertex -6 10 -22
      vertex 15 10 -25
    endloop
  endfacet
  facet normal 0 1 0
    outer loop
      vertex 11.5 10 -22
      vertex 15 10 -25
      vertex 10.809 10 -22.9511
    endloop
  endfacet
  facet normal 0 1 0
    outer loop
      vertex 11.5 10 -9.5
      vertex 11.5 10 -22
      vertex 10.809 10 -21.0489
    endloop
  endfacet
  facet normal 0 1 -0
    outer loop
      vertex -4.5 10 -5
      vertex -15 10 2.22045e-15
      vertex 4.5 10 -5
    endloop
  endfacet
  facet normal 0 1 -0
    outer loop
      vertex -10.191 10 -8.54894
      vertex -15 10 2.22045e-15
      vertex -4.5 10 -5
    endloop
  endfacet
  facet normal 0 1 -0
    outer loop
      vertex -11.309 10 -8.91221
      vertex -15 10 2.22045e-15
      vertex -10.191 10 -8.54894
    endloop
  endfacet
  facet normal 0 1 -0
    outer loop
      vertex -11.309 10 -10.0878
      vertex -15 10 2.22045e-15
      vertex -11.309 10 -8.91221
    endloop
  endfacet
  facet normal 0 1 0
    outer loop
      vertex -9.5 10 -9.5
      vertex -6 10 -14
      vertex -10.191 10 -10.4511
    endloop
  endfacet
  facet normal 0 1 0
    outer loop
      vertex -10.191 10 -21.0489
      vertex -10.191 10 -10.4511
      vertex -6 10 -14
    endloop
  endfacet
  facet normal 0 1 0
    outer loop
      vertex -10.191 10 -10.4511
      vertex -10.191 10 -21.0489
      vertex -11.309 10 -10.0878
    endloop
  endfacet
  facet normal 0 1 0
    outer loop
      vertex -11.309 10 -21.4122
      vertex -11.309 10 -10.0878
      vertex -10.191 10 -21.0489
    endloop
  endfacet
  facet normal 0 1 0
    outer loop
      vertex -15 10 -25
      vertex -11.309 10 -10.0878
      vertex -11.309 10 -21.4122
    endloop
  endfacet
  facet normal 0 1 0
    outer loop
      vertex -15 10 -25
      vertex -11.309 10 -21.4122
      vertex -11.309 10 -22.5878
    endloop
  endfacet
  facet normal 0 1 0
    outer loop
      vertex -11.309 10 -10.0878
      vertex -15 10 -25
      vertex -15 10 2.22045e-15
    endloop
  endfacet
  facet normal 0 1 0
    outer loop
      vertex -10.191 10 -22.9511
      vertex -15 10 -25
      vertex -11.309 10 -22.5878
    endloop
  endfacet
  facet normal 0 1 0
    outer loop
      vertex -6 10 -22
      vertex -15 10 -25
      vertex -10.191 10 -22.9511
    endloop
  endfacet
  facet normal 0 1 -0
    outer loop
      vertex 9.69098 10 -8.91221
      vertex 4.5 10 -5
      vertex 10.809 10 -8.54894
    endloop
  endfacet
  facet normal 0 1 -0
    outer loop
      vertex 9.69098 10 -10.0878
      vertex 4.5 10 -5
      vertex 9.69098 10 -8.91221
    endloop
  endfacet
  facet normal 0 1 0
    outer loop
      vertex 6 10 -14
      vertex 9.69098 10 -10.0878
      vertex 10.809 10 -10.4511
    endloop
  endfacet
  facet normal 0 1 0
    outer loop
      vertex 4.5 10 -14
      vertex 9.69098 10 -10.0878
      vertex 6 10 -14
    endloop
  endfacet
  facet normal 0 1 0
    outer loop
      vertex 9.69098 10 -10.0878
      vertex 4.5 10 -14
      vertex 4.5 10 -5
    endloop
  endfacet
  facet normal 0 1 -0
    outer loop
      vertex -6 10 -22
      vertex -10.191 10 -21.0489
      vertex -6 10 -14
    endloop
  endfacet
  facet normal 0 1 0
    outer loop
      vertex -10.191 10 -21.0489
      vertex -6 10 -22
      vertex -9.5 10 -22
    endloop
  endfacet
  facet normal 0 1 -0
    outer loop
      vertex 9.69098 10 -21.4122
      vertex 6 10 -14
      vertex 10.809 10 -21.0489
    endloop
  endfacet
  facet normal 0 1 0
    outer loop
      vertex 9.69098 10 -21.4122
      vertex 6 10 -22
      vertex 6 10 -14
    endloop
  endfacet
  facet normal 0 1 0
    outer loop
      vertex 15 10 -25
      vertex -6 10 -22
      vertex 6 10 -22
    endloop
  endfacet
  facet normal 0 1 -0
    outer loop
      vertex 9.69098 10 -22.5878
      vertex 6 10 -22
      vertex 9.69098 10 -21.4122
    endloop
  endfacet
  facet normal 0 1 0
    outer loop
      vertex 10.809 10 -22.9511
      vertex 6 10 -22
      vertex 9.69098 10 -22.5878
    endloop
  endfacet
  facet normal 0 1 0
    outer loop
      vertex 15 10 -25
      vertex 6 10 -22
      vertex 10.809 10 -22.9511
    endloop
  endfacet
  facet normal 0 1 0
    outer loop
      vertex -6 10 -22
      vertex -10.191 10 -22.9511
      vertex -9.5 10 -22
    endloop
  endfacet
  facet normal 1 0 0
    outer loop
      vertex 15 10 2.22045e-15
      vertex 15 5.55112e-15 -25
      vertex 15 10 -25
    endloop
  endfacet
  facet normal 1 0 -0
    outer loop
      vertex 15 5.55112e-15 -25
      vertex 15 10 2.22045e-15
      vertex 15 0 0
    endloop
  endfacet
  facet normal 0 -1 -2.22045e-16
    outer loop
      vertex -15 0 0
      vertex -10 4.21885e-15 -19
      vertex -10 0 0
    endloop
  endfacet
  facet normal 0 -1 -2.22045e-16
    outer loop
      vertex -10 4.21885e-15 -19
      vertex -15 5.55112e-15 -25
      vertex 10 4.21885e-15 -19
    endloop
  endfacet
  facet normal 0 -1 -2.22045e-16
    outer loop
      vertex -15 5.55112e-15 -25
      vertex -10 4.21885e-15 -19
      vertex -15 0 0
    endloop
  endfacet
  facet normal 0 -1 -2.22045e-16
    outer loop
      vertex 10 4.21885e-15 -19
      vertex 15 0 0
      vertex 10 0 0
    endloop
  endfacet
  facet normal 0 -1 -2.22045e-16
    outer loop
      vertex 10 4.21885e-15 -19
      vertex 15 5.55112e-15 -25
      vertex 15 0 0
    endloop
  endfacet
  facet normal -0 -1 -2.22045e-16
    outer loop
      vertex 15 5.55112e-15 -25
      vertex 10 4.21885e-15 -19
      vertex -15 5.55112e-15 -25
    endloop
  endfacet
  facet normal 0 -2.22045e-16 1
    outer loop
      vertex 15 10 2.22045e-15
      vertex 12.1 3 6.66134e-16
      vertex 15 0 0
    endloop
  endfacet
  facet normal 0 -2.22045e-16 1
    outer loop
      vertex 15 10 2.22045e-15
      vertex -12.1 3 6.66134e-16
      vertex 12.1 3 6.66134e-16
    endloop
  endfacet
  facet normal 0 -2.22045e-16 1
    outer loop
      vertex -15 0 0
      vertex -12.1 3 6.66134e-16
      vertex -15 10 2.22045e-15
    endloop
  endfacet
  facet normal 0 -2.22045e-16 1
    outer loop
      vertex -15 10 2.22045e-15
      vertex -12.1 3 6.66134e-16
      vertex 15 10 2.22045e-15
    endloop
  endfacet
  facet normal 0 -2.22045e-16 1
    outer loop
      vertex 12.1 1 2.22045e-16
      vertex 15 0 0
      vertex 12.1 3 6.66134e-16
    endloop
  endfacet
  facet normal 0 -2.22045e-16 1
    outer loop
      vertex 10 0 0
      vertex 12.1 1 2.22045e-16
      vertex 10 1 2.22045e-16
    endloop
  endfacet
  facet normal 0 -2.22045e-16 1
    outer loop
      vertex 12.1 1 2.22045e-16
      vertex 10 0 0
      vertex 15 0 0
    endloop
  endfacet
  facet normal 0 -2.22045e-16 1
    outer loop
      vertex -12.1 1 2.22045e-16
      vertex -10 0 0
      vertex -10 1 2.22045e-16
    endloop
  endfacet
  facet normal 0 -2.22045e-16 1
    outer loop
      vertex -12.1 1 2.22045e-16
      vertex -15 0 0
      vertex -10 0 0
    endloop
  endfacet
  facet normal 0 -2.22045e-16 1
    outer loop
      vertex -12.1 3 6.66134e-16
      vertex -15 0 0
      vertex -12.1 1 2.22045e-16
    endloop
  endfacet
  facet normal 0 0 -1
    outer loop
      vertex -15 5.55112e-15 -25
      vertex 15 10 -25
      vertex 15 5.55112e-15 -25
    endloop
  endfacet
  facet normal -0 0 -1
    outer loop
      vertex 15 10 -25
      vertex -15 5.55112e-15 -25
      vertex -15 10 -25
    endloop
  endfacet
  facet normal 1 -0 0
    outer loop
      vertex -12.1 1 2.22045e-16
      vertex -12.1 3 -19
      vertex -12.1 3 6.66134e-16
    endloop
  endfacet
  facet normal 1 0 0
    outer loop
      vertex -12.1 3 -19
      vertex -12.1 1 2.22045e-16
      vertex -12.1 1 -19
    endloop
  endfacet
  facet normal 0 -1 0
    outer loop
      vertex -12.1 3 6.66134e-16
      vertex -4.5 3 -5
      vertex 12.1 3 6.66134e-16
    endloop
  endfacet
  facet normal 0 -1 0
    outer loop
      vertex -12.1 3 6.66134e-16
      vertex -4.5 3 -14
      vertex -4.5 3 -5
    endloop
  endfacet
  facet normal 0 -1 -0
    outer loop
      vertex -4.5 3 -14
      vertex -12.1 3 -19
      vertex 4.5 3 -14
    endloop
  endfacet
  facet normal 0 -1 0
    outer loop
      vertex -12.1 3 -19
      vertex -4.5 3 -14
      vertex -12.1 3 6.66134e-16
    endloop
  endfacet
  facet normal 0 -1 0
    outer loop
      vertex 4.5 3 -5
      vertex 12.1 3 6.66134e-16
      vertex -4.5 3 -5
    endloop
  endfacet
  facet normal 0 -1 0
    outer loop
      vertex 4.5 3 -14
      vertex 12.1 3 6.66134e-16
      vertex 4.5 3 -5
    endloop
  endfacet
  facet normal 0 -1 0
    outer loop
      vertex 4.5 3 -14
      vertex 12.1 3 -19
      vertex 12.1 3 6.66134e-16
    endloop
  endfacet
  facet normal 0 -1 0
    outer loop
      vertex 12.1 3 -19
      vertex 4.5 3 -14
      vertex -12.1 3 -19
    endloop
  endfacet
  facet normal -1 0 0
    outer loop
      vertex 12.1 1 -19
      vertex 12.1 3 6.66134e-16
      vertex 12.1 3 -19
    endloop
  endfacet
  facet normal -1 0 0
    outer loop
      vertex 12.1 3 6.66134e-16
      vertex 12.1 1 -19
      vertex 12.1 1 2.22045e-16
    endloop
  endfacet
  facet normal 0 1 -0
    outer loop
      vertex -10 1 -19
      vertex -12.1 1 2.22045e-16
      vertex -10 1 2.22045e-16
    endloop
  endfacet
  facet normal 0 1 0
    outer loop
      vertex -12.1 1 2.22045e-16
      vertex -10 1 -19
      vertex -12.1 1 -19
    endloop
  endfacet
  facet normal 0 1 -0
    outer loop
      vertex 12.1 1 -19
      vertex 10 1 2.22045e-16
      vertex 12.1 1 2.22045e-16
    endloop
  endfacet
  facet normal 0 1 0
    outer loop
      vertex 10 1 2.22045e-16
      vertex 12.1 1 -19
      vertex 10 1 -19
    endloop
  endfacet
  facet normal 0 0 1
    outer loop
      vertex 12.1 3 -19
      vertex 10 1 -19
      vertex 12.1 1 -19
    endloop
  endfacet
  facet normal 0 0 1
    outer loop
      vertex 10 1 -19
      vertex -10 1 -19
      vertex 10 4.21885e-15 -19
    endloop
  endfacet
  facet normal 0 0 1
    outer loop
      vertex 12.1 3 -19
      vertex -10 1 -19
      vertex 10 1 -19
    endloop
  endfacet
  facet normal -0 0 1
    outer loop
      vertex -12.1 3 -19
      vertex -10 1 -19
      vertex 12.1 3 -19
    endloop
  endfacet
  facet normal 0 0 1
    outer loop
      vertex -10 1 -19
      vertex -12.1 3 -19
      vertex -12.1 1 -19
    endloop
  endfacet
  facet normal 0 0 1
    outer loop
      vertex 10 4.21885e-15 -19
      vertex -10 1 -19
      vertex -10 4.21885e-15 -19
    endloop
  endfacet
  facet normal 1 0 0
    outer loop
      vertex -10 1 2.22045e-16
      vertex -10 4.21885e-15 -19
      vertex -10 1 -19
    endloop
  endfacet
  facet normal 1 0 -0
    outer loop
      vertex -10 4.21885e-15 -19
      vertex -10 1 2.22045e-16
      vertex -10 0 0
    endloop
  endfacet
  facet normal -1 0 0
    outer loop
      vertex 10 4.21885e-15 -19
      vertex 10 1 2.22045e-16
      vertex 10 1 -19
    endloop
  endfacet
  facet normal -1 0 0
    outer loop
      vertex 10 1 2.22045e-16
      vertex 10 4.21885e-15 -19
      vertex 10 0 0
    endloop
  endfacet
  facet normal -0.809017 0 0.587785
    outer loop
      vertex -10.191 3.5 -10.4511
      vertex -9.5 10 -9.5
      vertex -10.191 10 -10.4511
    endloop
  endfacet
  facet normal -0.809017 0 0.587785
    outer loop
      vertex -9.5 10 -9.5
      vertex -10.191 3.5 -10.4511
      vertex -9.5 3.5 -9.5
    endloop
  endfacet
  facet normal 1 -0 0
    outer loop
      vertex -11.309 3.5 -8.91221
      vertex -11.309 10 -10.0878
      vertex -11.309 10 -8.91221
    endloop
  endfacet
  facet normal 1 0 0
    outer loop
      vertex -11.309 10 -10.0878
      vertex -11.309 3.5 -8.91221
      vertex -11.309 3.5 -10.0878
    endloop
  endfacet
  facet normal 0.309017 0 0.951056
    outer loop
      vertex -11.309 10 -10.0878
      vertex -10.191 3.5 -10.4511
      vertex -10.191 10 -10.4511
    endloop
  endfacet
  facet normal 0.309017 0 0.951056
    outer loop
      vertex -10.191 3.5 -10.4511
      vertex -11.309 10 -10.0878
      vertex -11.309 3.5 -10.0878
    endloop
  endfacet
  facet normal 0.309017 0 -0.951056
    outer loop
      vertex -11.309 3.5 -8.91221
      vertex -10.191 10 -8.54894
      vertex -10.191 3.5 -8.54894
    endloop
  endfacet
  facet normal 0.309017 0 -0.951056
    outer loop
      vertex -10.191 10 -8.54894
      vertex -11.309 3.5 -8.91221
      vertex -11.309 10 -8.91221
    endloop
  endfacet
  facet normal 0 1 0
    outer loop
      vertex -9.5 3.5 -9.5
      vertex -11.309 3.5 -8.91221
      vertex -10.191 3.5 -8.54894
    endloop
  endfacet
  facet normal 0 1 0
    outer loop
      vertex -9.5 3.5 -9.5
      vertex -11.309 3.5 -10.0878
      vertex -11.309 3.5 -8.91221
    endloop
  endfacet
  facet normal -0 1 0
    outer loop
      vertex -11.309 3.5 -10.0878
      vertex -9.5 3.5 -9.5
      vertex -10.191 3.5 -10.4511
    endloop
  endfacet
  facet normal -0.809017 0 -0.587785
    outer loop
      vertex -9.5 3.5 -9.5
      vertex -10.191 10 -8.54894
      vertex -9.5 10 -9.5
    endloop
  endfacet
  facet normal -0.809017 -0 -0.587785
    outer loop
      vertex -10.191 10 -8.54894
      vertex -9.5 3.5 -9.5
      vertex -10.191 3.5 -8.54894
    endloop
  endfacet
  facet normal -0.809017 0 0.587786
    outer loop
      vertex 10.809 3.5 -10.4511
      vertex 11.5 10 -9.5
      vertex 10.809 10 -10.4511
    endloop
  endfacet
  facet normal -0.809017 0 0.587786
    outer loop
      vertex 11.5 10 -9.5
      vertex 10.809 3.5 -10.4511
      vertex 11.5 3.5 -9.5
    endloop
  endfacet
  facet normal 1 -0 0
    outer loop
      vertex 9.69098 3.5 -8.91221
      vertex 9.69098 10 -10.0878
      vertex 9.69098 10 -8.91221
    endloop
  endfacet
  facet normal 1 0 0
    outer loop
      vertex 9.69098 10 -10.0878
      vertex 9.69098 3.5 -8.91221
      vertex 9.69098 3.5 -10.0878
    endloop
  endfacet
  facet normal 0.309017 0 0.951056
    outer loop
      vertex 9.69098 10 -10.0878
      vertex 10.809 3.5 -10.4511
      vertex 10.809 10 -10.4511
    endloop
  endfacet
  facet normal 0.309017 0 0.951056
    outer loop
      vertex 10.809 3.5 -10.4511
      vertex 9.69098 10 -10.0878
      vertex 9.69098 3.5 -10.0878
    endloop
  endfacet
  facet normal 0.309017 0 -0.951056
    outer loop
      vertex 9.69098 3.5 -8.91221
      vertex 10.809 10 -8.54894
      vertex 10.809 3.5 -8.54894
    endloop
  endfacet
  facet normal 0.309017 0 -0.951056
    outer loop
      vertex 10.809 10 -8.54894
      vertex 9.69098 3.5 -8.91221
      vertex 9.69098 10 -8.91221
    endloop
  endfacet
  facet normal 0 1 0
    outer loop
      vertex 11.5 3.5 -9.5
      vertex 9.69098 3.5 -8.91221
      vertex 10.809 3.5 -8.54894
    endloop
  endfacet
  facet normal 0 1 0
    outer loop
      vertex 11.5 3.5 -9.5
      vertex 9.69098 3.5 -10.0878
      vertex 9.69098 3.5 -8.91221
    endloop
  endfacet
  facet normal -0 1 0
    outer loop
      vertex 9.69098 3.5 -10.0878
      vertex 11.5 3.5 -9.5
      vertex 10.809 3.5 -10.4511
    endloop
  endfacet
  facet normal -0.809017 0 -0.587785
    outer loop
      vertex 11.5 3.5 -9.5
      vertex 10.809 10 -8.54894
      vertex 11.5 10 -9.5
    endloop
  endfacet
  facet normal -0.809017 -0 -0.587785
    outer loop
      vertex 10.809 10 -8.54894
      vertex 11.5 3.5 -9.5
      vertex 10.809 3.5 -8.54894
    endloop
  endfacet
  facet normal -0.809017 0 0.587786
    outer loop
      vertex -10.191 3.5 -22.9511
      vertex -9.5 10 -22
      vertex -10.191 10 -22.9511
    endloop
  endfacet
  facet normal -0.809017 0 0.587786
    outer loop
      vertex -9.5 10 -22
      vertex -10.191 3.5 -22.9511
      vertex -9.5 3.5 -22
    endloop
  endfacet
  facet normal 1 -0 0
    outer loop
      vertex -11.309 3.5 -21.4122
      vertex -11.309 10 -22.5878
      vertex -11.309 10 -21.4122
    endloop
  endfacet
  facet normal 1 0 0
    outer loop
      vertex -11.309 10 -22.5878
      vertex -11.309 3.5 -21.4122
      vertex -11.309 3.5 -22.5878
    endloop
  endfacet
  facet normal 0.309017 0 0.951056
    outer loop
      vertex -11.309 10 -22.5878
      vertex -10.191 3.5 -22.9511
      vertex -10.191 10 -22.9511
    endloop
  endfacet
  facet normal 0.309017 0 0.951056
    outer loop
      vertex -10.191 3.5 -22.9511
      vertex -11.309 10 -22.5878
      vertex -11.309 3.5 -22.5878
    endloop
  endfacet
  facet normal 0.309017 0 -0.951056
    outer loop
      vertex -11.309 3.5 -21.4122
      vertex -10.191 10 -21.0489
      vertex -10.191 3.5 -21.0489
    endloop
  endfacet
  facet normal 0.309017 0 -0.951056
    outer loop
      vertex -10.191 10 -21.0489
      vertex -11.309 3.5 -21.4122
      vertex -11.309 10 -21.4122
    endloop
  endfacet
  facet normal 0 1 0
    outer loop
      vertex -9.5 3.5 -22
      vertex -11.309 3.5 -21.4122
      vertex -10.191 3.5 -21.0489
    endloop
  endfacet
  facet normal 0 1 0
    outer loop
      vertex -9.5 3.5 -22
      vertex -11.309 3.5 -22.5878
      vertex -11.309 3.5 -21.4122
    endloop
  endfacet
  facet normal -0 1 0
    outer loop
      vertex -11.309 3.5 -22.5878
      vertex -9.5 3.5 -22
      vertex -10.191 3.5 -22.9511
    endloop
  endfacet
  facet normal -0.809017 0 -0.587785
    outer loop
      vertex -9.5 3.5 -22
      vertex -10.191 10 -21.0489
      vertex -9.5 10 -22
    endloop
  endfacet
  facet normal -0.809017 -0 -0.587785
    outer loop
      vertex -10.191 10 -21.0489
      vertex -9.5 3.5 -22
      vertex -10.191 3.5 -21.0489
    endloop
  endfacet
  facet normal -0.809016 0 0.587786
    outer loop
      vertex 10.809 3.5 -22.9511
      vertex 11.5 10 -22
      vertex 10.809 10 -22.9511
    endloop
  endfacet
  facet normal -0.809016 0 0.587786
    outer loop
      vertex 11.5 10 -22
      vertex 10.809 3.5 -22.9511
      vertex 11.5 3.5 -22
    endloop
  endfacet
  facet normal 1 -0 0
    outer loop
      vertex 9.69098 3.5 -21.4122
      vertex 9.69098 10 -22.5878
      vertex 9.69098 10 -21.4122
    endloop
  endfacet
  facet normal 1 0 0
    outer loop
      vertex 9.69098 10 -22.5878
      vertex 9.69098 3.5 -21.4122
      vertex 9.69098 3.5 -22.5878
    endloop
  endfacet
  facet normal 0.309017 0 0.951056
    outer loop
      vertex 9.69098 10 -22.5878
      vertex 10.809 3.5 -22.9511
      vertex 10.809 10 -22.9511
    endloop
  endfacet
  facet normal 0.309017 0 0.951056
    outer loop
      vertex 10.809 3.5 -22.9511
      vertex 9.69098 10 -22.5878
      vertex 9.69098 3.5 -22.5878
    endloop
  endfacet
  facet normal 0.309017 0 -0.951056
    outer loop
      vertex 9.69098 3.5 -21.4122
      vertex 10.809 10 -21.0489
      vertex 10.809 3.5 -21.0489
    endloop
  endfacet
  facet normal 0.309017 0 -0.951056
    outer loop
      vertex 10.809 10 -21.0489
      vertex 9.69098 3.5 -21.4122
      vertex 9.69098 10 -21.4122
    endloop
  endfacet
  facet normal 0 1 0
    outer loop
      vertex 11.5 3.5 -22
      vertex 9.69098 3.5 -21.4122
      vertex 10.809 3.5 -21.0489
    endloop
  endfacet
  facet normal 0 1 0
    outer loop
      vertex 11.5 3.5 -22
      vertex 9.69098 3.5 -22.5878
      vertex 9.69098 3.5 -21.4122
    endloop
  endfacet
  facet normal -0 1 0
    outer loop
      vertex 9.69098 3.5 -22.5878
      vertex 11.5 3.5 -22
      vertex 10.809 3.5 -22.9511
    endloop
  endfacet
  facet normal -0.809017 0 -0.587785
    outer loop
      vertex 11.5 3.5 -22
      vertex 10.809 10 -21.0489
      vertex 11.5 10 -22
    endloop
  endfacet
  facet normal -0.809017 -0 -0.587785
    outer loop
      vertex 10.809 10 -21.0489
      vertex 11.5 3.5 -22
      vertex 10.809 3.5 -21.0489
    endloop
  endfacet
  facet normal 1 0 0
    outer loop
      vertex -4.5 10 -5
      vertex -4.5 8 -14
      vertex -4.5 10 -14
    endloop
  endfacet
  facet normal 1 -0 0
    outer loop
      vertex -4.5 3 -5
      vertex -4.5 8 -14
      vertex -4.5 10 -5
    endloop
  endfacet
  facet normal 1 0 0
    outer loop
      vertex -4.5 8 -14
      vertex -4.5 3 -5
      vertex -4.5 3 -14
    endloop
  endfacet
  facet normal -1 0 0
    outer loop
      vertex 4.5 8 -14
      vertex 4.5 10 -5
      vertex 4.5 10 -14
    endloop
  endfacet
  facet normal -1 0 0
    outer loop
      vertex 4.5 3 -5
      vertex 4.5 8 -14
      vertex 4.5 3 -14
    endloop
  endfacet
  facet normal -1 0 0
    outer loop
      vertex 4.5 8 -14
      vertex 4.5 3 -5
      vertex 4.5 10 -5
    endloop
  endfacet
  facet normal 0 0 -1
    outer loop
      vertex -4.5 3 -5
      vertex 4.5 10 -5
      vertex 4.5 3 -5
    endloop
  endfacet
  facet normal -0 0 -1
    outer loop
      vertex 4.5 10 -5
      vertex -4.5 3 -5
      vertex -4.5 10 -5
    endloop
  endfacet
  facet normal -0 0 1
    outer loop
      vertex -4.5 8 -14
      vertex 4.5 3 -14
      vertex 4.5 8 -14
    endloop
  endfacet
  facet normal 0 0 1
    outer loop
      vertex 4.5 3 -14
      vertex -4.5 8 -14
      vertex -4.5 3 -14
    endloop
  endfacet
  facet normal 0 0 -1
    outer loop
      vertex 4.5 8 -14
      vertex 6 10 -14
      vertex 6 8 -14
    endloop
  endfacet
  facet normal -0 0 -1
    outer loop
      vertex 6 10 -14
      vertex 4.5 8 -14
      vertex 4.5 10 -14
    endloop
  endfacet
  facet normal 0 0 -1
    outer loop
      vertex -6 8 -14
      vertex -4.5 10 -14
      vertex -4.5 8 -14
    endloop
  endfacet
  facet normal -0 0 -1
    outer loop
      vertex -4.5 10 -14
      vertex -6 8 -14
      vertex -6 10 -14
    endloop
  endfacet
  facet normal 1 -0 0
    outer loop
      vertex -6 8 -14
      vertex -6 10 -22
      vertex -6 10 -14
    endloop
  endfacet
  facet normal 1 0 0
    outer loop
      vertex -6 10 -22
      vertex -6 8 -14
      vertex -6 8 -22
    endloop
  endfacet
  facet normal -1 0 0
    outer loop
      vertex 6 8 -22
      vertex 6 10 -14
      vertex 6 10 -22
    endloop
  endfacet
  facet normal -1 -0 0
    outer loop
      vertex 6 10 -14
      vertex 6 8 -22
      vertex 6 8 -14
    endloop
  endfacet
  facet normal -0 0 1
    outer loop
      vertex -6 10 -22
      vertex 6 8 -22
      vertex 6 10 -22
    endloop
  endfacet
  facet normal 0 0 1
    outer loop
      vertex 6 8 -22
      vertex -6 10 -22
      vertex -6 8 -22
    endloop
  endfacet
  facet normal 0 1 -0
    outer loop
      vertex 6 8 -22
      vertex 4.5 8 -14
      vertex 6 8 -14
    endloop
  endfacet
  facet normal 0 1 0
    outer loop
      vertex 4.5 8 -14
      vertex 6 8 -22
      vertex -4.5 8 -14
    endloop
  endfacet
  facet normal 0 1 0
    outer loop
      vertex -6 8 -22
      vertex -4.5 8 -14
      vertex 6 8 -22
    endloop
  endfacet
  facet normal 0 1 0
    outer loop
      vertex -4.5 8 -14
      vertex -6 8 -22
      vertex -6 8 -14
    endloop
  endfacet
endsolid OpenSCAD_Model
